-------------------------------------------------------------------------------------------
                      The Master 2012 DVDRip x264 AC3 nekanilla
___________________________________________________________________________________________

---------------------------------------INFO------------------------------------------------

Movie name: The Master
Country and year of production: USA / 2012
Speech language / subtitle: English / Greek, English
Genre: Drama
Movie Length: 144 minutes
Writer: Paul Thomas Anderson
Directed by: Paul Thomas Anderson
___________________________________________________________________________________________

---------------------------------------PLOT------------------------------------------------

Paul Thomas Anderson's The Master stars Joaquin Phoenix as a psychologically damaged war veteran who finds himself working for Lancaster Dodd (Philip Seymour Hoffman), a charismatic figure building his own religion. As the alcoholic, self-destructive former soldier becomes more deeply involved with the leader of this cult-like organization, his natural instincts keep him from embracing his new position as strongly as others in the group would hope.
___________________________________________________________________________________________

---------------------------------------CAST------------------------------------------------

Joaquin Phoenix as Freddie Quell
Philip Seymour Hoffman as Lancaster Dodd
Amy Adams as Peggy Dodd
Ambyr Childers as Elizabeth Dodd, Lancaster's daughter
Jesse Plemons as Val Dodd, Lancaster's son
Rami Malek as Clark, son-in-law of Lancaster Dodd
Laura Dern as Helen Sullivan
Madisen Beaty as Doris Solstad
Lena Endre as Mrs. Solstad
___________________________________________________________________________________________

------------------------------------MEDIA INFO---------------------------------------------
     
                                 Includes sample
[b]General[/b]
Complete name                  : The Master 2012 x264 AC3.mkv
Format                         : Matroska
Format version                 : Version 4 / Version 2
File size                      : 1.87 GiB
Duration                       : 2h 17mn
Overall bit rate               : 1 949 Kbps
Encoded date                   : UTC 2013-02-06 18:03:11
Writing application            : mkvmerge v6.0.0 ('Coming Up For Air') built on Jan 20 2013 09:52:00
Writing library                : libebml v1.3.0 + libmatroska v1.4.0

[b]Video[/b]
ID                             : 1
Format                         : AVC
Format/Info                    : Advanced Video Codec
Format profile                 : High@L3.1
Format settings, CABAC         : Yes
Format settings, ReFrames      : 9 frames
Codec ID                       : V_MPEG4/ISO/AVC
Duration                       : 2h 17mn
Bit rate                       : 1 500 Kbps
Width                          : 720 pixels
Height                         : 384 pixels
Display aspect ratio           : 1.875
Frame rate                     : 23.976 fps
Color space                    : YUV
Chroma subsampling             : 4:2:0
Bit depth                      : 8 bits
Scan type                      : Progressive
Bits/(Pixel*Frame)             : 0.226
Stream size                    : 1.40 GiB (75%)
Writing library                : x264 core 120
Encoding settings              : cabac=1 / ref=9 / deblock=1:-2:-2 / analyse=0x3:0x133 / me=umh / subme=9 / psy=1 / psy_rd=1.00:0.00 / mixed_ref=1 / me_range=24 / chroma_me=1 / trellis=2 / 8x8dct=1 / cqm=0 / deadzone=21,11 / fast_pskip=0 / chroma_qp_offset=-2 / threads=6 / sliced_threads=0 / nr=0 / decimate=1 / interlaced=0 / bluray_compat=0 / constrained_intra=0 / bframes=6 / b_pyramid=2 / b_adapt=2 / b_bias=0 / direct=3 / weightb=1 / open_gop=0 / weightp=2 / keyint=240 / keyint_min=24 / scenecut=40 / intra_refresh=0 / rc_lookahead=50 / rc=2pass / mbtree=1 / bitrate=1500 / ratetol=1.0 / qcomp=0.60 / qpmin=3 / qpmax=69 / qpstep=4 / cplxblur=20.0 / qblur=0.5 / ip_ratio=1.40 / aq=1:1.20
Language                       : English
Default                        : Yes
Forced                         : No
Color primaries                : BT.601-6 525, BT.1358 525, BT.1700 NTSC, SMPTE 170M
Transfer characteristics       : BT.709-5, BT.1361
Matrix coefficients            : BT.601-6 525, BT.1358 525, BT.1700 NTSC, SMPTE 170M

[b]Audio[/b]
ID                             : 2
Format                         : AC-3
Format/Info                    : Audio Coding 3
Mode extension                 : CM (complete main)
Codec ID                       : A_AC3
Duration                       : 2h 17mn
Bit rate mode                  : Constant
Bit rate                       : 448 Kbps
Channel(s)                     : 6 channels
Channel positions              : Front: L C R, Side: L R, LFE
Sampling rate                  : 48.0 KHz
Bit depth                      : 16 bits
Compression mode               : Lossy
Stream size                    : 440 MiB (23%)
Default                        : Yes
Forced                         : No
___________________________________________________________________________________________

------------------------------------SUBTITLES----------------------------------------------
Greek Srt by   P2PlaneTGroup        ..:: babyboo79 ~
dinosgr75 ~ evosmos81 ~ Godmother ~ Pteti ~ Roula29 ::..
                             Roula29     
___________________________________________________________________________________________

-----------------------------------SCREENSHOTS---------------------------------------------
[IMG=http://i.imgur.com/9nJroWv.png]

[IMG=http://i.imgur.com/8rIKDI9.png]

[IMG=http://i.imgur.com/1uiz4XQ.png]

[IMG=http://i.imgur.com/djvBcCP.png]
___________________________________________________________________________________________

                                Source: NTSC DVD9-AXED
                                Rip   : By   nekanilla